PathFileType	4	(X/Y/Z)	../Python\running\Running07\task.trc
DataRate	CameraRate	NumFrames	NumMarkers	Units	OrigDataRate	OrigDataStartFrame	OrigNumFrames
200.000000	200.000000	4	30	mm	200.000000	44	177
Frame#	Time	C7			RBAK			CLAV			STRN			RASI			LASI			PE01			RTH1			RTH2			RTH3			RTB2			RHEE			RD5M			RTOE			LTH2			LTH3			LTB2			LTB3			LHEE			LTOE			LD5M			LPSI			RPSI			RTB1			RTB3			T10			PE03			PE02			LTH1			LTB1			
		X1	Y1	Z1	X2	Y2	Z2	X3	Y3	Z3	X4	Y4	Z4	X5	Y5	Z5	X6	Y6	Z6	X7	Y7	Z7	X8	Y8	Z8	X9	Y9	Z9	X10	Y10	Z10	X11	Y11	Z11	X12	Y12	Z12	X13	Y13	Z13	X14	Y14	Z14	X15	Y15	Z15	X16	Y16	Z16	X17	Y17	Z17	X18	Y18	Z18	X19	Y19	Z19	X20	Y20	Z20	X21	Y21	Z21	X22	Y22	Z22	X23	Y23	Z23	X24	Y24	Z24	X25	Y25	Z25	X26	Y26	Z26	X27	Y27	Z27	X28	Y28	Z28	X29	Y29	Z29	X30	Y30	Z30	

45	0.22	-829.5637207031255	1304.572021484375	120.5875320434571	-864.3989868164067	1234.70166015625	253.5709075927736	-717.2873535156252	1195.181884765625	116.8864212036133	-687.4014282226565	1000.882629394532	141.9812622070313	-747.8450317382815	811.7031250000005	289.0549316406251	-750.4116210937502	830.855102539063	62.29377365112308	-928.235473632813	915.2690429687505	208.7414855957032	-805.2397460937505	524.4132080078127	340.4575805664064	-779.9701538085942	449.3909912109377	332.7348632812501	-758.1289672851565	506.6510009765627	337.8404235839845	-961.551879882813	339.3708496093751	297.293182373047	-1172.896850585938	298.6764526367189	175.9863586425782	-1146.437744140625	178.0047607421876	280.7102966308595	-1118.281982421875	141.7994689941407	243.7023925781251	-762.580749511719	516.9822998046877	45.41235351562501	-703.0233154296877	566.7263793945315	31.95397377014162	-798.2824707031255	197.8955230712892	70.99078369140628	-754.0194091796877	213.2743682861329	80.20298004150393	-897.4234008789067	36.25881576538087	131.671859741211	-714.110046386719	31.67827033996583	151.917709350586	-743.015808105469	14.45474147796632	92.75242614746097	-942.549682617188	886.777954101563	161.3062438964844	-935.8793334960942	878.1081542968755	247.3348083496095	-903.5169067382817	312.2178649902345	299.1609191894532	-978.7050781250005	294.3103637695314	280.1651916503907	-901.6156616210942	1023.665405273438	190.0578765869141	-955.824340820313	865.5908203125005	173.1033630371094	-954.327758789063	855.7333984375005	222.7600708007814	-751.9996337890627	574.8496093750002	26.60906219482423	-767.1040649414065	270.3198852539064	56.97108459472659	
46	0.225	-813.1140136718755	1303.399780273438	120.4890441894532	-849.6854858398442	1233.4541015625	252.8048706054689	-700.8670654296877	1193.037841796875	118.2563476562501	-671.5291748046877	998.4075317382817	143.427230834961	-732.3010864257815	809.6997680664067	287.9550781250001	-736.1856079101565	829.3912963867192	61.10755538940433	-912.6235961914067	914.6250610351567	209.7816009521486	-782.553100585938	523.8005371093752	340.6338195800782	-754.7550048828127	449.6335754394534	332.9763793945314	-734.8228759765627	507.6108093261721	338.4029235839845	-933.1145629882817	336.6543273925782	299.2719726562501	-1145.937866210938	293.2742919921876	179.7222290039063	-1114.3662109375	172.6153411865235	283.1594543457032	-1085.718627929688	137.5401153564454	245.3807678222657	-752.0784912109377	515.1228027343752	44.45117187500001	-691.7120361328127	564.4918212890627	31.28408241271974	-794.464233398438	196.8184204101564	70.5433044433594	-749.9724121093752	211.3718872070314	80.08908843994143	-897.3911743164067	37.07138061523439	131.4895019531251	-714.2478027343752	31.56229209899904	151.8447418212891	-743.155456542969	14.28119373321534	92.63240051269534	-927.5579223632817	886.5014648437505	162.1923828125001	-920.1137695312505	877.2304687500005	248.4750823974611	-874.5976562500005	310.2915649414064	299.8582763671876	-949.8273315429692	291.5943908691407	281.7009582519532	-885.8862915039067	1022.433959960938	189.8646697998047	-940.9282226562505	865.2020874023442	174.2321319580079	-938.7517700195317	855.0722045898442	223.8769531250001	-740.768005371094	572.930358886719	25.80441474914552	-761.799255371094	268.5269165039064	56.39799499511722	
47	0.23	-796.7075195312505	1302.545288085938	120.4833145141602	-834.9893188476567	1232.53125	252.0326995849611	-684.4970703125002	1191.343139648438	119.7234268188477	-655.6597290039065	996.475463867188	144.906478881836	-716.7363281250002	808.1240844726567	286.918182373047	-721.9371337890627	828.0258789062505	60.01079559326175	-896.923950195313	914.347534179688	210.5479583740236	-759.852722167969	523.7212524414065	340.7168884277345	-729.6159667968752	450.4497070312502	333.0315856933595	-711.5499267578127	509.0677795410159	338.8569335937501	-904.601196289063	334.0859375000001	301.1178283691407	-1118.697143554688	287.2597656250001	183.4551391601563	-1081.860229492188	166.8663330078126	285.6167297363282	-1052.659790039063	132.9935913085938	247.0868377685548	-741.6234130859377	513.486511230469	43.440731048584	-680.457946777344	562.5073242187502	30.67561721801759	-791.069946289063	195.7297821044923	70.17371368408206	-746.355163574219	209.5260314941407	79.94097137451175	-897.364868164063	37.9314651489258	131.347885131836	-714.3988037109377	31.4624423980713	151.7828369140626	-743.334655761719	14.11810016632081	92.51403808593753	-912.4836425781255	886.482788085938	162.8916473388672	-904.3268432617192	876.8536987304692	249.3843383789064	-845.6585083007817	308.7366943359376	300.5386047363282	-920.8251953125005	288.9844360351564	283.2160034179689	-870.1420288085942	1021.517639160157	189.6012420654297	-925.9371948242192	865.143676757813	175.1482238769532	-923.1786499023442	854.8374023437505	224.7904663085939	-729.6221923828127	571.2425537109377	25.0604591369629	-757.0706787109377	266.7296752929689	55.85054016113284	
48	0.235	-780.3522338867192	1302.015747070313	120.5637969970704	-820.3171997070317	1231.934692382813	251.2395629882814	-668.174987792969	1190.117797851563	121.2810287475587	-639.7792968750002	995.107543945313	146.4122467041016	-701.140075683594	807.0034179687505	285.9593200683595	-707.6364746093752	826.758178710938	59.0095024108887	-881.1558227539067	914.4096679687505	211.0263061523439	-737.1609497070315	524.1880493164065	340.7176818847657	-704.6096801757815	451.8453369140627	332.9060668945314	-688.3403930664065	511.0183410644534	339.199920654297	-876.0553588867192	331.6869506835939	302.8218078613282	-1091.1484375	280.6510009765626	187.1363830566407	-1048.939086914063	160.8318939208985	288.0805053710939	-1019.1318359375	128.2170410156251	248.8430175781251	-731.3223266601565	512.0753173828127	42.43096923828126	-669.3327636718752	560.6717529296877	30.13809394836427	-788.0847778320317	194.6960449218751	69.88896942138675	-743.147888183594	207.7887725830079	79.77400970458987	-897.356567382813	38.86886596679689	131.2630767822266	-714.5716552734377	31.38287353515626	151.7357482910157	-743.5733642578127	13.98037242889405	92.41384124755862	-897.3165893554692	886.6986694335942	163.383773803711	-888.5300903320317	876.9282226562505	250.0334320068361	-816.7446289062505	307.5714416503907	301.2020874023439	-891.727905273438	286.4929199218751	284.6921691894532	-854.3713989257817	1020.916809082032	189.2563934326172	-910.8410644531255	865.385620117188	175.8226318359376	-907.6155395507817	854.9948120117192	225.4713287353517	-718.613708496094	569.7688598632815	24.39643287658693	-752.880798339844	265.0013732910157	55.35306930541995	
